<?xml version="1.0" standalone="no"?><!DOCTYPE svg PUBLIC "-//W3C//DTD SVG 1.1//EN" "http://www.w3.org/Graphics/SVG/1.1/DTD/svg11.dtd"><svg t="1652517288219" class="icon" viewBox="0 0 1024 1024" version="1.1" xmlns="http://www.w3.org/2000/svg" p-id="3454" width="32" height="32" xmlns:xlink="http://www.w3.org/1999/xlink"><defs><style type="text/css"></style></defs><path d="M692.992 735.658667a257.706667 257.706667 0 0 1-58.453333 43.818666l41.002666 74.837334a344.234667 344.234667 0 0 0 109.610667-94.933334l-68.266667-51.242666a253.354667 253.354667 0 0 1-23.893333 27.52z m74.368-199.296a254.933333 254.933333 0 0 1-15.445333 107.861333l79.914666 29.909333a340.352 340.352 0 0 0 20.608-143.829333l-85.077333 6.058667z m64.512-101.034667a343.381333 343.381333 0 0 0-78.549333-121.984l-60.330667 60.330667a259.029333 259.029333 0 0 1 58.965333 91.562666l79.914667-29.909333z m-346.794667 373.888c-2.005333-0.213333-4.010667-0.64-6.016-0.896a285.909333 285.909333 0 0 1-19.968-3.2 252.714667 252.714667 0 0 1-103.296-47.872 254.037333 254.037333 0 0 1-24.874666-21.589333 261.888 261.888 0 0 1-22.016-25.472 252.16 252.16 0 0 1-38.016-69.717334 259.669333 259.669333 0 0 1-10.538667-38.485333c-0.341333-1.834667-0.512-3.754667-0.810667-5.589333A270.165333 270.165333 0 0 1 256 554.752V554.666667c0-68.394667 26.624-132.650667 75.008-180.992A253.610667 253.610667 0 0 1 469.333333 302.464V426.666667l213.333334-170.666667-213.333334-170.666667v130.944a337.792 337.792 0 0 0-198.656 97.066667A338.602667 338.602667 0 0 0 170.666667 554.624V555.008c0 10.794667 0.597333 21.504 1.578666 32.128 0.298667 3.242667 0.896 6.4 1.28 9.685333 0.896 7.338667 1.877333 14.72 3.242667 22.016 0.810667 4.266667 1.877333 8.362667 2.816 12.586667 1.365333 6.058667 2.773333 12.074667 4.48 18.048 1.365333 4.778667 2.986667 9.514667 4.565333 14.208 1.109333 3.370667 2.005333 6.784 3.242667 10.112l0.341333-0.128A339.114667 339.114667 0 0 0 238.933333 758.826667l-0.298666 0.213333c0.896 1.194667 2.090667 2.261333 2.986666 3.456 9.002667 11.605333 18.474667 22.954667 29.056 33.493333a351.402667 351.402667 0 0 0 41.216 34.816c11.306667 8.192 22.912 15.872 35.029334 22.570667l1.194666 0.810667 0.042667-0.042667a336.085333 336.085333 0 0 0 91.136 33.92l-0.042667 0.213333 2.261334 0.384c8.576 1.792 17.28 3.029333 26.026666 4.181334 2.944 0.384 5.888 0.981333 8.832 1.28a342.954667 342.954667 0 0 0 108.032-5.845334l-18.090666-83.413333a260.693333 260.693333 0 0 1-81.237334 4.352z" p-id="3455"></path></svg>